# xmcd CD database file
#
# Track frame offsets:
#	150
#	15973
#	32708
#	51673
#	68733
#	79750
#	93778
#	112453
#	129183
#	142253
#	158553
#	173938
#	190575
#	204650
#	220930
#	240968
#	263498
#	277990
#	292953
#	312793
#
# Disc length: 4365 seconds
#
# Revision: 0
# Processed by: cddbd v1.5.2PL0 Copyright (c) Steve Scherf et al.
# Submitted via: CDex 1.70beta2
#
DISCID=14110b14
DTITLE=ChartBreakers - ChartBreakers CGC-529
DYEAR=1900
DGENRE=Country
TTITLE0=Marty Stuart - Now That's Country
TTITLE1=Travis Tritt - Take It Easy
TTITLE2=Vince Gill - I Can't Tell You Why
TTITLE3=Reba McEntire - Only In My Mind
TTITLE4=Mel McDaniel - Louisiana Saturday Night
TTITLE5=George Strait - A Fire I Can't Put Out
TTITLE6=Deborah Allen - Baby I Lied
TTITLE7=Atlanta - Sweet Country Music
TTITLE8=Confederate Railroad - She Took It Like A Man
TTITLE9=Billy Ray Cyrus - Wher'm I Gonna Live
TTITLE10=Forrester Sisters - (I'd Choose) You Again
TTITLE11=Gibson~Miller Band - High Rollin'
TTITLE12=Highway 101 - Whiskey, If You Were A Woman
TTITLE13=Pam Tillis - One Of Those Things
TTITLE14=Travis Tritt - Put Some Drive In Your Country
TTITLE15=Conway Twitty - That's My Job
TTITLE16=Steve Wariner - What I Didn't Do
TTITLE17=Steve Wariner - Lonely Women Make Good Lovers
TTITLE18=Hank Williams Jr - A Country Boy Can Survive
TTITLE19=Dwight Yoakam - The Heart That You Own
EXTD=YEAR: 1900
EXTT0=
EXTT1=
EXTT2=
EXTT3=
EXTT4=
EXTT5=
EXTT6=
EXTT7=
EXTT8=
EXTT9=
EXTT10=
EXTT11=
EXTT12=
EXTT13=
EXTT14=
EXTT15=
EXTT16=
EXTT17=
EXTT18=
EXTT19=
PLAYORDER=
